<svg width="100" height="100" viewBox="0 0 100 100" fill="none" xmlns="http://www.w3.org/2000/svg">
<g clip-path="url(#clip0_75_460)">
<path d="M50.0003 24.3594C28.1149 24.3594 10.3701 35.8385 10.3701 49.9948C10.3701 64.1562 28.1149 75.6406 50.0003 75.6406C71.8857 75.6406 89.6305 64.1615 89.6305 49.9948C89.6305 35.8281 71.8857 24.3594 50.0003 24.3594ZM50.0003 64.6354C46.7451 64.6354 44.0889 58.224 43.9222 50.1562C45.8805 50.3281 47.917 50.4219 50.0003 50.4219C52.0837 50.4219 54.1201 50.3281 56.0785 50.1562C55.9118 58.2187 53.2555 64.6354 50.0003 64.6354ZM44.3232 43.75C45.2087 38.0469 47.417 34 50.0003 34C52.5837 34 54.792 38.0469 55.6774 43.75C53.8597 43.9115 51.9639 44 50.0003 44C48.0368 44 46.141 43.9115 44.3232 43.75ZM50.0003 28.0677C45.7503 28.0677 42.1253 34.4323 40.7868 43.3177C32.7295 42.0625 27.1045 39.1979 27.1045 35.8698C27.1045 31.3802 37.3545 27.7396 50.0003 27.7396C62.6462 27.7396 72.8962 31.3802 72.8962 35.8698C72.8962 39.1979 67.2712 42.0625 59.2139 43.3177C57.8753 34.4323 54.2503 28.0677 50.0003 28.0677ZM16.0524 49.0365C16.0524 44.6927 17.7243 40.6146 20.6357 37.1146C20.6045 37.3594 20.5837 37.6094 20.5837 37.8594C20.5837 43.3333 28.792 48 40.2451 49.7187C40.2347 50.1146 40.2347 50.5156 40.2347 50.9167C40.2347 61.1198 43.0941 69.7604 47.0472 72.6927C29.6774 71.6458 16.0524 61.4531 16.0524 49.0365ZM52.9535 72.6927C56.9066 69.7604 59.766 61.1198 59.766 50.9167C59.766 50.5104 59.7607 50.1146 59.7555 49.7187C71.2035 48 79.417 43.3385 79.417 37.8594C79.417 37.6094 79.3962 37.3594 79.3649 37.1146C82.2764 40.625 83.9482 44.6927 83.9482 49.0365C83.9482 61.4531 70.3232 71.6458 52.9535 72.6927Z" fill="#282830"/>
</g>
<defs>
<clipPath id="clip0_75_460">
<rect width="80" height="52" fill="white" transform="translate(10 24)"/>
</clipPath>
</defs>
</svg>
