<svg width="55" height="13" viewBox="0 0 55 13" fill="none" xmlns="http://www.w3.org/2000/svg">
<path d="M54.8172 7.1918L49.1922 12.8168C49.0749 12.9341 48.9159 13 48.75 13C48.5841 13 48.4251 12.9341 48.3078 12.8168C48.1905 12.6995 48.1247 12.5405 48.1247 12.3746C48.1247 12.2088 48.1905 12.0497 48.3078 11.9324L52.8664 7.37462H0.625C0.45924 7.37462 0.300269 7.30877 0.183059 7.19156C0.0658485 7.07435 0 6.91538 0 6.74962C0 6.58385 0.0658485 6.42488 0.183059 6.30767C0.300269 6.19046 0.45924 6.12462 0.625 6.12462H52.8664L48.3078 1.5668C48.1905 1.44953 48.1247 1.29047 48.1247 1.12462C48.1247 0.958763 48.1905 0.799703 48.3078 0.682428C48.4251 0.565152 48.5841 0.499268 48.75 0.499268C48.9159 0.499268 49.0749 0.565152 49.1922 0.682428L54.8172 6.30743C54.8753 6.36547 54.9214 6.4344 54.9529 6.51028C54.9843 6.58615 55.0005 6.66748 55.0005 6.74962C55.0005 6.83175 54.9843 6.91308 54.9529 6.98895C54.9214 7.06483 54.8753 7.13376 54.8172 7.1918Z" fill="white"/>
</svg>
