<svg width="86" height="57" viewBox="0 0 86 57" fill="none" xmlns="http://www.w3.org/2000/svg">
<path d="M1 40.75H26V15.75H1V40.75Z" fill="white"/>
<path d="M39.6953 34.4062V29.6016L49.2812 6.89062H55.0469V29.6016H57.5547V34.4062H55.0469V40.5H49.8672V34.4062H39.6953ZM44.5469 29.6016H49.8672V16.9688L44.5469 29.6016ZM59.9688 40.5V35.4141H65.0547V40.5H59.9688ZM68.3359 21.1172V14.9531C68.3359 12.2656 69.0234 10.1875 70.3984 8.71875C71.7891 7.25 73.7734 6.51562 76.3516 6.51562C78.9297 6.51562 80.9062 7.25 82.2812 8.71875C83.6719 10.1875 84.3672 12.2656 84.3672 14.9531V32.1562C84.3672 37.9688 81.6797 40.875 76.3047 40.875C73.7422 40.875 71.7891 40.1484 70.4453 38.6953C69.1016 37.2266 68.4297 35.1406 68.4297 32.4375V31.5703H73.4219V32.7656C73.4219 34.9844 74.3359 36.0938 76.1641 36.0938C77.1484 36.0938 77.8828 35.7891 78.3672 35.1797C78.8516 34.5547 79.0938 33.4766 79.0938 31.9453V25.8047C78.1562 27.7891 76.5234 28.7812 74.1953 28.7812C72.2578 28.7812 70.7969 28.125 69.8125 26.8125C68.8281 25.5 68.3359 23.6016 68.3359 21.1172ZM73.6328 20.6719C73.6328 22.875 74.5391 23.9766 76.3516 23.9766C78.1797 23.9766 79.0938 22.875 79.0938 20.6719V14.625C79.0938 12.4531 78.1797 11.3672 76.3516 11.3672C74.5391 11.3672 73.6328 12.4531 73.6328 14.625V20.6719Z" fill="white"/>
</svg>
