<svg width="71" height="77" viewBox="0 0 71 77" fill="none" xmlns="http://www.w3.org/2000/svg">
<path d="M70.0476 3.39646C70.8189 3.09401 71.1989 2.22361 70.8965 1.45237C70.594 0.681125 69.7236 0.301092 68.9524 0.60354L70.0476 3.39646ZM8.27808 76.37C8.75857 77.0449 9.69516 77.2024 10.37 76.7219L21.3673 68.8919C22.0421 68.4114 22.1997 67.4748 21.7192 66.7999C21.2387 66.1251 20.3021 65.9675 19.6273 66.448L9.85191 73.4081L2.89186 63.6327C2.41137 62.9579 1.47478 62.8003 0.799931 63.2808C0.125083 63.7613 -0.0324734 64.6979 0.448018 65.3727L8.27808 76.37ZM11.5358 72.7562C11.7013 71.9445 11.1774 71.1523 10.3657 70.9868C9.55393 70.8213 8.76173 71.3452 8.59623 72.1569L11.5358 72.7562ZM10.0634 66.0496C9.84206 66.8479 10.3098 67.6745 11.1081 67.8959C11.9064 68.1172 12.733 67.6496 12.9543 66.8512L10.0634 66.0496ZM14.7778 61.0647C15.054 60.2837 14.6449 59.4266 13.8639 59.1504C13.0829 58.8741 12.2258 59.2833 11.9495 60.0643L14.7778 61.0647ZM14.249 54.2154C13.9195 54.9755 14.2686 55.8588 15.0287 56.1883C15.7887 56.5177 16.672 56.1687 17.0015 55.4086L14.249 54.2154ZM19.605 49.9217C19.9852 49.1857 19.6968 48.2808 18.9607 47.9006C18.2247 47.5204 17.3198 47.8088 16.9396 48.5449L19.605 49.9217ZM20.0009 43.0716C19.573 43.7809 19.8011 44.7029 20.5105 45.1308C21.2198 45.5587 22.1418 45.3306 22.5697 44.6212L20.0009 43.0716ZM25.8788 39.5152C26.3512 38.8346 26.1826 37.9 25.5021 37.4276C24.8215 36.9551 23.8869 37.1238 23.4145 37.8043L25.8788 39.5152ZM27.1491 32.7667C26.6355 33.4167 26.7461 34.36 27.3962 34.8736C28.0462 35.3871 28.9895 35.2765 29.503 34.6265L27.1491 32.7667ZM33.4184 29.9649C33.9698 29.3466 33.9155 28.3984 33.2972 27.847C32.6789 27.2957 31.7307 27.35 31.1793 27.9683L33.4184 29.9649ZM35.4812 23.4163C34.8952 24.0019 34.8948 24.9516 35.4803 25.5377C36.0659 26.1237 37.0157 26.124 37.6017 25.5385L35.4812 23.4163ZM42.0313 21.3544C42.6491 20.8025 42.7027 19.8543 42.1508 19.2364C41.599 18.6186 40.6507 18.5651 40.0329 19.1169L42.0313 21.3544ZM44.8157 15.0765C44.1684 15.5935 44.0628 16.5374 44.5798 17.1847C45.0968 17.8319 46.0407 17.9376 46.688 17.4205L44.8157 15.0765ZM51.554 13.7486C52.2288 13.268 52.3863 12.3314 51.9058 11.6566C51.4252 10.9818 50.4886 10.8243 49.8138 11.3048L51.554 13.7486ZM55.0118 7.82026C54.3107 8.26158 54.1001 9.18768 54.5415 9.88878C54.9828 10.5899 55.9089 10.8005 56.61 10.3591L55.0118 7.82026ZM61.8607 7.27354C62.5879 6.87678 62.8558 5.9656 62.459 5.23836C62.0623 4.51112 61.1511 4.24322 60.4239 4.63998L61.8607 7.27354ZM66.0514 1.82905C65.2962 2.16956 64.96 3.05782 65.3005 3.81303C65.641 4.56824 66.5293 4.90442 67.2845 4.56391L66.0514 1.82905ZM10.9792 75.7488C11.1488 74.7406 11.3345 73.7431 11.5358 72.7562L8.59623 72.1569C8.38816 73.1774 8.19612 74.2089 8.02078 75.2512L10.9792 75.7488ZM12.9543 66.8512C13.502 64.8764 14.1117 62.9476 14.7778 61.0647L11.9495 60.0643C11.2606 62.0118 10.6299 64.0068 10.0634 66.0496L12.9543 66.8512ZM17.0015 55.4086C17.816 53.5295 18.6861 51.7006 19.605 49.9217L16.9396 48.5449C15.9903 50.3827 15.0911 52.2728 14.249 54.2154L17.0015 55.4086ZM22.5697 44.6212C23.6293 42.8647 24.7349 41.1628 25.8788 39.5152L23.4145 37.8043C22.2351 39.503 21.0945 41.2587 20.0009 43.0716L22.5697 44.6212ZM29.503 34.6265C30.7778 33.0129 32.086 31.4592 33.4184 29.9649L31.1793 27.9683C29.8085 29.5056 28.4619 31.1049 27.1491 32.7667L29.503 34.6265ZM37.6017 25.5385C39.065 24.0763 40.5452 22.6817 42.0313 21.3544L40.0329 19.1169C38.5063 20.4804 36.9853 21.9134 35.4812 23.4163L37.6017 25.5385ZM46.688 17.4205C48.322 16.1154 49.9489 14.8915 51.554 13.7486L49.8138 11.3048C48.1648 12.4791 46.4938 13.7361 44.8157 15.0765L46.688 17.4205ZM56.61 10.3591C58.4212 9.21906 60.1794 8.19078 61.8607 7.27354L60.4239 4.63998C58.6873 5.58738 56.8753 6.64726 55.0118 7.82026L56.61 10.3591ZM67.2845 4.56391C68.2548 4.12643 69.1781 3.73745 70.0476 3.39646L68.9524 0.60354C68.0333 0.96395 67.064 1.37249 66.0514 1.82905L67.2845 4.56391Z" fill="#D51117"/>
</svg>
