<svg width="200" height="201" viewBox="0 0 200 201" fill="none" xmlns="http://www.w3.org/2000/svg">
<path d="M85.6727 42.8943C86.8637 44.0867 86.8637 46.0184 85.6727 47.2107L72.9096 59.9862C70.5276 62.371 70.5276 66.2344 72.9096 68.6192L85.6727 81.3947C86.8637 82.587 86.8637 84.5188 85.6727 85.7112C84.4817 86.9035 82.5505 86.9035 81.3596 85.7112L68.5965 72.9357C66.2141 70.5509 62.3518 70.5509 59.9698 72.9357L47.2067 85.7112C46.0158 86.9035 44.0846 86.9035 42.8932 85.7112C41.7023 84.5188 41.7023 82.587 42.8932 81.3947L55.6563 68.6192C58.0387 66.2344 58.0387 62.371 55.6563 59.9862L42.8936 47.2107C41.7022 46.0184 41.7022 44.0867 42.8936 42.8943C44.0846 41.7019 46.0158 41.7019 47.2067 42.8943L59.9698 55.6698C62.3518 58.0509 66.2141 58.0509 68.5965 55.6698L81.3596 42.8943C82.5505 41.7019 84.4817 41.7019 85.6727 42.8943Z" fill="white"/>
<path d="M157.736 47.2107C158.924 46.0184 158.924 44.0867 157.736 42.8943C156.545 41.7019 154.611 41.7019 153.42 42.8943L140.659 55.6698C138.276 58.0509 134.412 58.0509 132.03 55.6698L119.269 42.8943C118.077 41.7019 116.147 41.7019 114.956 42.8943C113.765 44.0867 113.765 46.0184 114.956 47.2107L127.717 59.9862C130.1 62.371 130.1 66.2344 127.717 68.6192L114.956 81.3947C113.765 82.587 113.765 84.5188 114.956 85.7112C116.147 86.9035 118.077 86.9035 119.269 85.7112L132.03 72.9357C134.412 70.5509 138.276 70.5509 140.659 72.9357L153.42 85.7112C154.611 86.9035 156.545 86.9035 157.736 85.7112C158.924 84.5188 158.924 82.587 157.736 81.3947L144.972 68.6192C142.589 66.2344 142.589 62.371 144.972 59.9862L157.736 47.2107Z" fill="white"/>
<path fill-rule="evenodd" clip-rule="evenodd" d="M103.004 126.708C99.635 126.708 96.9039 129.445 96.9039 132.815V141.974C96.9039 150.824 89.7348 158 80.8912 158C72.0477 158 64.8789 150.824 64.8789 141.974V123.657C64.8789 121.971 66.2445 120.605 67.929 120.605H136.555C138.239 120.605 139.604 121.971 139.604 123.657C139.604 125.342 138.239 126.708 136.555 126.708H103.004ZM74.4101 126.708C72.5152 126.708 70.9787 128.249 70.9787 130.144V141.974C70.9787 147.453 75.4168 151.893 80.8912 151.893C86.3657 151.893 90.8038 147.453 90.8038 141.974V130.144C90.8038 128.249 89.2677 126.708 87.3727 126.708C85.4774 126.708 83.9413 128.249 83.9413 130.144V140.448C83.9413 142.133 82.5758 143.499 80.8912 143.499C79.2067 143.499 77.8412 142.133 77.8412 140.448V130.144C77.8412 128.249 76.3051 126.708 74.4101 126.708Z" fill="white"/>
</svg>
