<svg xmlns="http://www.w3.org/2000/svg" viewBox="4724 5050.7998046875 16 16" width="16" height="16" data-guides="{&quot;vertical&quot;:[],&quot;horizontal&quot;:[]}"><path fill="#b3b3b3" stroke="none" fill-opacity="1" stroke-width="1" stroke-opacity="1" font-size-adjust="none" id="tSvgc9a80702a6" title="Path 1" d="M 4731.27995 5052.7117646875 C 4731.60141 5052.1598846875 4732.39875 5052.1598846875 4732.72015 5052.7117646875C 4733.341266666666 5053.778151354167 4733.9623833333335 5054.844538020833 4734.5835 5055.9109246875C 4735.789633333334 5056.1721046875 4736.995766666667 5056.4332846875 4738.2019 5056.6944646875C 4738.8261 5056.8296346875 4739.0725 5057.5879046875 4738.6469 5058.0641646875C 4737.824633333334 5058.984411354167 4737.002366666667 5059.904658020833 4736.1801 5060.8249046875C 4736.304433333334 5062.0527046875 4736.428766666667 5063.2805046875 4736.5531 5064.5083046875C 4736.6174 5065.1437046875 4735.9724 5065.6124046875 4735.3879 5065.3548046875C 4734.258626666667 5064.857171354167 4733.129353333334 5064.3595380208335 4732.00008 5063.8619046875C 4730.870783333334 5064.3595380208335 4729.741486666667 5064.857171354167 4728.61219 5065.3548046875C 4728.02774 5065.6124046875 4727.38271 5065.1437046875 4727.44705 5064.5083046875C 4727.5713633333335 5063.2805046875 4727.695676666666 5062.0527046875 4727.81999 5060.8249046875C 4726.997736666666 5059.904658020833 4726.175483333333 5058.984411354167 4725.35323 5058.0641646875C 4724.92768 5057.5879046875 4725.17406 5056.8296346875 4725.79827 5056.6944646875C 4727.004393333334 5056.4332846875 4728.210516666667 5056.1721046875 4729.41664 5055.9109246875C 4730.037743333333 5054.844538020833 4730.658846666666 5053.778151354167 4731.27995 5052.7117646875Z"/><defs/></svg>