<svg width="100" height="100" viewBox="0 0 100 100" fill="none" xmlns="http://www.w3.org/2000/svg">
<g clip-path="url(#clip0_75_466)">
<path d="M56.4111 57.6625C56.4111 57.8144 56.4591 57.9025 56.5472 57.9025C56.6216 57.9025 56.6833 57.8626 56.7393 57.8224L81.6728 41.6402C82.094 41.3457 82.5987 41.1943 83.1125 41.2081H88.5919C89.4319 41.2081 89.9998 41.768 89.9998 42.608V53.0709C89.9998 54.3346 89.7198 55.0707 88.5999 55.7425L81.9527 59.7422C81.8863 59.7883 81.8079 59.8223 81.7288 59.8223C81.6496 59.8223 81.5688 59.7583 81.5688 59.5263V47.3196C81.5688 47.1755 81.5289 47.0796 81.4328 47.0796C81.3626 47.0796 81.296 47.1155 81.2407 47.1597L63.0185 58.9986C62.6025 59.2785 62.1144 59.4306 61.6186 59.4226H49.5397C48.6917 59.4226 48.1319 58.8628 48.1319 58.0147V42.9363C48.1319 42.8243 48.0839 42.7204 47.9878 42.7204C47.9178 42.7204 47.8515 42.757 47.7957 42.8005L35.7733 50.0154C35.6533 50.0954 35.6214 50.1514 35.6214 50.2074C35.6214 50.2554 35.6455 50.3033 35.7253 50.3914L44.3164 58.9745C44.4284 59.0865 44.5085 59.1746 44.5085 59.2705C44.5085 59.3505 44.3804 59.4146 44.2285 59.4146H36.4692C35.8612 59.4146 35.3892 59.3265 35.0613 58.9986L29.8538 53.7991C29.8139 53.7514 29.7565 53.7191 29.6939 53.7191C29.6375 53.7191 29.5824 53.7382 29.534 53.767L20.8309 58.9986C20.303 59.3187 19.943 59.4065 19.4231 59.4065H11.4159C10.5601 59.4146 10 58.8467 10 58.0067V47.7436C10 46.4718 10.2799 45.7438 11.4079 45.072L18.0953 41.0565C18.1472 41.0211 18.2084 41.0017 18.2713 41.0005C18.3752 41.0005 18.4312 41.1044 18.4312 41.3364V55.079C18.4312 55.2231 18.4631 55.2869 18.5672 55.2869C18.6381 55.2869 18.7033 55.2469 18.7673 55.2068L41.3571 41.6161C41.7891 41.3201 42.3171 41.1762 42.845 41.2001H55.0037C55.8437 41.2001 56.4116 41.7599 56.4116 42.5999L56.4036 57.6625H56.4111Z" fill="#223547"/>
</g>
<defs>
<clipPath id="clip0_75_466">
<rect width="80" height="18.822" fill="white" transform="translate(10 41)"/>
</clipPath>
</defs>
</svg>
