<svg width="100" height="100" viewBox="0 0 100 100" fill="none" xmlns="http://www.w3.org/2000/svg">
<path fill-rule="evenodd" clip-rule="evenodd" d="M63.227 24.732C72.3012 29.5042 78.5 39.0187 78.5 49.986C78.5 60.9532 72.3012 70.4977 63.227 75.2407V71.9797C66.6972 69.9037 69.6327 66.999 71.7687 63.561L63.227 60.0937V54.8175L72.5982 62.139C74.5557 58.5225 75.653 54.402 75.653 49.9852C75.653 40.6777 70.67 32.4975 63.227 27.9915V24.732ZM50.03 21.501C54.7752 21.501 59.2527 22.6575 63.227 24.732V27.993C59.579 25.7985 55.3085 24.495 50.801 24.3465L54.0628 47.6745L63.227 54.8182V60.0945L49.97 54.729L36.8022 60.1237V54.8767L46.0257 47.6737L49.2583 24.3457C44.6908 24.4942 40.4503 25.7985 36.8022 27.9915V24.732C40.7472 22.6575 45.2548 21.501 50.03 21.501ZM63.227 75.2407C59.2527 77.3152 54.7745 78.5002 50.03 78.5002C45.2555 78.5002 40.748 77.3152 36.803 75.27V71.9797C40.6587 74.3205 45.1955 75.6547 50.03 75.6547C54.8345 75.6547 59.3427 74.3205 63.227 71.9797V75.2407ZM36.803 75.27C27.698 70.4977 21.5 60.9532 21.5 49.986C21.5 39.0187 27.698 29.5042 36.803 24.732V27.993C29.3292 32.4982 24.347 40.6492 24.347 49.986C24.347 54.402 25.4743 58.5825 27.4318 62.1982L36.803 54.8767V60.1237L28.2913 63.6202C30.4265 67.0305 33.3327 69.9045 36.803 71.9797V75.27Z" fill="#4D4D4D"/>
</svg>
