<svg width="100" height="100" viewBox="0 0 100 100" fill="none" xmlns="http://www.w3.org/2000/svg">
<path d="M23.8778 37.6328C20.6673 37.7399 17.6276 39.1042 15.4137 41.4316C13.1998 43.7591 11.9892 46.8633 12.0427 50.075C12.0963 53.2868 13.4097 56.3489 15.6999 58.6012C17.9902 60.8536 21.0737 62.1158 24.2859 62.1158C27.4981 62.1158 30.5817 60.8536 32.8719 58.6012C35.1621 56.3489 36.4756 53.2868 36.5291 50.075C36.5827 46.8633 35.372 43.7591 33.1581 41.4316C30.9443 39.1042 27.9045 37.7399 24.6941 37.6328H23.8778ZM41.0206 37.6328C37.8102 37.7399 34.7704 39.1042 32.5565 41.4316C30.3427 43.7591 29.132 46.8633 29.1856 50.075C29.2391 53.2868 30.5526 56.3489 32.8428 58.6012C35.133 60.8536 38.2166 62.1158 41.4288 62.1158C44.641 62.1158 47.7245 60.8536 50.0148 58.6012C52.305 56.3489 53.6184 53.2868 53.672 50.075C53.7255 46.8633 52.5149 43.7591 50.301 41.4316C48.0871 39.1042 45.0473 37.7399 41.8369 37.6328H41.0206ZM58.1635 37.6328C54.9531 37.7399 51.9133 39.1042 49.6994 41.4316C47.4855 43.7591 46.2749 46.8633 46.3284 50.075C46.382 53.2868 47.6954 56.3489 49.9856 58.6012C52.2759 60.8536 55.3594 62.1158 58.5716 62.1158C61.7838 62.1158 64.8674 60.8536 67.1576 58.6012C69.4478 56.3489 70.7613 53.2868 70.8148 50.075C70.8684 46.8633 69.6577 43.7591 67.4438 41.4316C65.23 39.1042 62.1902 37.7399 58.9798 37.6328H58.1635ZM75.3063 37.6328C72.0959 37.7399 69.0561 39.1042 66.8423 41.4316C64.6284 43.7591 63.4177 46.8633 63.4713 50.075C63.5248 53.2868 64.8383 56.3489 67.1285 58.6012C69.4187 60.8536 72.5023 62.1158 75.7145 62.1158C78.9267 62.1158 82.0102 60.8536 84.3005 58.6012C86.5907 56.3489 87.9041 53.2868 87.9577 50.075C88.0112 46.8633 86.8006 43.7591 84.5867 41.4316C82.3728 39.1042 79.3331 37.7399 76.1226 37.6328H75.3063Z" stroke="#4C4C57"/>
</svg>
